<mxfile host="app.diagrams.net" agent="Mozilla/5.0 (Macintosh; Intel Mac OS X 10_15_7) AppleWebKit/537.36 (KHTML, like Gecko) Chrome/136.0.0.0 Safari/537.36" version="27.0.3">
  <diagram name="第 1 页" id="Oujjc9dFSEn5Tp1WTh4n">
    <mxGraphModel dx="777" dy="938" grid="1" gridSize="10" guides="1" tooltips="1" connect="1" arrows="1" fold="1" page="1" pageScale="1" pageWidth="945" pageHeight="462" math="0" shadow="0">
      <root>
        <mxCell id="0" />
        <mxCell id="1" parent="0" />
        <mxCell id="NaLfc49Hw88pL273WHC5-3" style="edgeStyle=orthogonalEdgeStyle;rounded=0;orthogonalLoop=1;jettySize=auto;html=1;exitX=1;exitY=0.5;exitDx=0;exitDy=0;entryX=0;entryY=0.75;entryDx=0;entryDy=0;fontSize=16;fontStyle=1;movable=1;resizable=1;rotatable=1;deletable=1;editable=1;locked=0;connectable=1;" edge="1" parent="1" source="NaLfc49Hw88pL273WHC5-14" target="NaLfc49Hw88pL273WHC5-4">
          <mxGeometry relative="1" as="geometry" />
        </mxCell>
        <mxCell id="NaLfc49Hw88pL273WHC5-4" value="Memory" style="rounded=1;whiteSpace=wrap;html=1;fontSize=16;fontStyle=1;movable=1;resizable=1;rotatable=1;deletable=1;editable=1;locked=0;connectable=1;" vertex="1" parent="1">
          <mxGeometry x="1297.5" y="522.5" width="200" height="125" as="geometry" />
        </mxCell>
        <mxCell id="NaLfc49Hw88pL273WHC5-5" value="DataIn" style="text;html=1;align=center;verticalAlign=middle;whiteSpace=wrap;rounded=0;fontSize=16;fontStyle=1;movable=1;resizable=1;rotatable=1;deletable=1;editable=1;locked=0;connectable=1;" vertex="1" parent="1">
          <mxGeometry x="1297.5" y="600" width="60" height="30" as="geometry" />
        </mxCell>
        <mxCell id="NaLfc49Hw88pL273WHC5-6" value="Addr" style="text;html=1;align=center;verticalAlign=middle;whiteSpace=wrap;rounded=0;fontSize=16;fontStyle=1;dashed=1;dashPattern=1 2;strokeWidth=2;movable=1;resizable=1;rotatable=1;deletable=1;editable=1;locked=0;connectable=1;" vertex="1" parent="1">
          <mxGeometry x="1297.5" y="570" width="60" height="30" as="geometry" />
        </mxCell>
        <mxCell id="NaLfc49Hw88pL273WHC5-7" style="edgeStyle=orthogonalEdgeStyle;rounded=0;orthogonalLoop=1;jettySize=auto;html=1;exitX=1;exitY=0.5;exitDx=0;exitDy=0;entryX=0.75;entryY=0;entryDx=0;entryDy=0;strokeColor=#FF0000;strokeWidth=3;dashed=1;dashPattern=1 2;movable=1;resizable=1;rotatable=1;deletable=1;editable=1;locked=0;connectable=1;" edge="1" parent="1" source="NaLfc49Hw88pL273WHC5-18" target="NaLfc49Hw88pL273WHC5-4">
          <mxGeometry relative="1" as="geometry" />
        </mxCell>
        <mxCell id="NaLfc49Hw88pL273WHC5-8" value="We" style="text;html=1;align=center;verticalAlign=middle;resizable=1;points=[];autosize=1;strokeColor=none;fillColor=none;fontSize=16;fontStyle=1;dashed=1;dashPattern=1 2;strokeWidth=2;movable=1;rotatable=1;deletable=1;editable=1;locked=0;connectable=1;" vertex="1" parent="1">
          <mxGeometry x="1422.5" y="525" width="50" height="30" as="geometry" />
        </mxCell>
        <mxCell id="NaLfc49Hw88pL273WHC5-9" style="edgeStyle=orthogonalEdgeStyle;rounded=0;orthogonalLoop=1;jettySize=auto;html=1;exitX=1;exitY=0.5;exitDx=0;exitDy=0;movable=1;resizable=1;rotatable=1;deletable=1;editable=1;locked=0;connectable=1;" edge="1" parent="1" source="NaLfc49Hw88pL273WHC5-10">
          <mxGeometry relative="1" as="geometry">
            <mxPoint x="1597.5" y="616" as="targetPoint" />
          </mxGeometry>
        </mxCell>
        <mxCell id="NaLfc49Hw88pL273WHC5-10" value="OUT" style="text;html=1;align=center;verticalAlign=middle;whiteSpace=wrap;rounded=0;fontSize=16;fontStyle=1;movable=1;resizable=1;rotatable=1;deletable=1;editable=1;locked=0;connectable=1;" vertex="1" parent="1">
          <mxGeometry x="1437.5" y="600" width="60" height="30" as="geometry" />
        </mxCell>
        <mxCell id="NaLfc49Hw88pL273WHC5-11" style="edgeStyle=orthogonalEdgeStyle;rounded=0;orthogonalLoop=1;jettySize=auto;html=1;exitX=1;exitY=0.5;exitDx=0;exitDy=0;entryX=0;entryY=0.5;entryDx=0;entryDy=0;strokeWidth=3;fillColor=#e51400;strokeColor=#B20000;dashed=1;dashPattern=1 2;movable=1;resizable=1;rotatable=1;deletable=1;editable=1;locked=0;connectable=1;" edge="1" parent="1" source="NaLfc49Hw88pL273WHC5-19" target="NaLfc49Hw88pL273WHC5-24">
          <mxGeometry relative="1" as="geometry" />
        </mxCell>
        <mxCell id="NaLfc49Hw88pL273WHC5-12" value="" style="rounded=0;whiteSpace=wrap;html=1;fontSize=16;fillColor=#e1d5e7;strokeColor=#9673a6;container=0;fontStyle=1;movable=1;resizable=1;rotatable=1;deletable=1;editable=1;locked=0;connectable=1;" vertex="1" parent="1">
          <mxGeometry x="1112.5" y="310" width="80" height="410" as="geometry" />
        </mxCell>
        <mxCell id="NaLfc49Hw88pL273WHC5-13" value="EX/MEM" style="text;html=1;align=center;verticalAlign=middle;resizable=1;points=[];autosize=1;strokeColor=none;fillColor=none;fontSize=16;container=0;fontStyle=1;movable=1;rotatable=1;deletable=1;editable=1;locked=0;connectable=1;" vertex="1" parent="1">
          <mxGeometry x="1103.5" y="280" width="90" height="30" as="geometry" />
        </mxCell>
        <mxCell id="NaLfc49Hw88pL273WHC5-14" value="Rs2" style="rounded=0;whiteSpace=wrap;html=1;fontSize=16;fillColor=#d5e8d4;strokeColor=#82b366;container=0;fontStyle=1;movable=1;resizable=1;rotatable=1;deletable=1;editable=1;locked=0;connectable=1;" vertex="1" parent="1">
          <mxGeometry x="1113.5" y="600" width="80" height="30" as="geometry" />
        </mxCell>
        <mxCell id="NaLfc49Hw88pL273WHC5-15" style="edgeStyle=orthogonalEdgeStyle;rounded=0;orthogonalLoop=1;jettySize=auto;html=1;exitX=1;exitY=0.5;exitDx=0;exitDy=0;entryX=0;entryY=0.5;entryDx=0;entryDy=0;movable=1;resizable=1;rotatable=1;deletable=1;editable=1;locked=0;connectable=1;" edge="1" parent="1" source="NaLfc49Hw88pL273WHC5-17" target="NaLfc49Hw88pL273WHC5-6">
          <mxGeometry relative="1" as="geometry" />
        </mxCell>
        <mxCell id="NaLfc49Hw88pL273WHC5-16" style="edgeStyle=orthogonalEdgeStyle;rounded=0;orthogonalLoop=1;jettySize=auto;html=1;entryX=0;entryY=0.5;entryDx=0;entryDy=0;strokeColor=#009900;strokeWidth=3;movable=1;resizable=1;rotatable=1;deletable=1;editable=1;locked=0;connectable=1;" edge="1" parent="1" source="NaLfc49Hw88pL273WHC5-17" target="NaLfc49Hw88pL273WHC5-23">
          <mxGeometry relative="1" as="geometry">
            <Array as="points">
              <mxPoint x="1237.5" y="585" />
              <mxPoint x="1237.5" y="495" />
            </Array>
          </mxGeometry>
        </mxCell>
        <mxCell id="NaLfc49Hw88pL273WHC5-17" value="Result" style="rounded=0;whiteSpace=wrap;html=1;fontSize=16;fillColor=#d5e8d4;strokeColor=#82b366;container=0;fontStyle=1;movable=1;resizable=1;rotatable=1;deletable=1;editable=1;locked=0;connectable=1;" vertex="1" parent="1">
          <mxGeometry x="1113.5" y="570" width="80" height="30" as="geometry" />
        </mxCell>
        <mxCell id="NaLfc49Hw88pL273WHC5-18" value="&lt;span style=&quot;font-size: 16px;&quot;&gt;&lt;font style=&quot;font-size: 16px;&quot;&gt;MemWe&lt;/font&gt;&lt;/span&gt;" style="rounded=0;whiteSpace=wrap;html=1;fillColor=#e51400;strokeColor=#B20000;fontColor=#ffffff;fontSize=16;fontStyle=1;movable=1;resizable=1;rotatable=1;deletable=1;editable=1;locked=0;connectable=1;" vertex="1" parent="1">
          <mxGeometry x="1113" y="320" width="80" height="30" as="geometry" />
        </mxCell>
        <mxCell id="NaLfc49Hw88pL273WHC5-19" value="&lt;span style=&quot;font-size: 16px;&quot;&gt;&lt;font style=&quot;font-size: 16px;&quot;&gt;MemtoReg&lt;/font&gt;&lt;/span&gt;" style="rounded=0;whiteSpace=wrap;html=1;fillColor=#e51400;strokeColor=#B20000;fontColor=#ffffff;fontSize=16;fontStyle=1;movable=1;resizable=1;rotatable=1;deletable=1;editable=1;locked=0;connectable=1;" vertex="1" parent="1">
          <mxGeometry x="1113" y="350" width="80" height="30" as="geometry" />
        </mxCell>
        <mxCell id="NaLfc49Hw88pL273WHC5-20" value="&lt;span style=&quot;font-size: 16px;&quot;&gt;&lt;font style=&quot;font-size: 16px;&quot;&gt;....&lt;/font&gt;&lt;/span&gt;" style="rounded=0;whiteSpace=wrap;html=1;fillColor=#e51400;strokeColor=#B20000;fontColor=#ffffff;fontSize=16;fontStyle=1;movable=1;resizable=1;rotatable=1;deletable=1;editable=1;locked=0;connectable=1;" vertex="1" parent="1">
          <mxGeometry x="1113" y="380" width="80" height="30" as="geometry" />
        </mxCell>
        <mxCell id="NaLfc49Hw88pL273WHC5-21" value="" style="rounded=0;whiteSpace=wrap;html=1;fontSize=16;fillColor=#e1d5e7;strokeColor=#9673a6;container=0;fontStyle=1;movable=1;resizable=1;rotatable=1;deletable=1;editable=1;locked=0;connectable=1;" vertex="1" parent="1">
          <mxGeometry x="1602.5" y="310" width="77.5" height="400" as="geometry" />
        </mxCell>
        <mxCell id="NaLfc49Hw88pL273WHC5-22" value="MEM/WB" style="text;html=1;align=center;verticalAlign=middle;resizable=1;points=[];autosize=1;strokeColor=none;fillColor=none;fontSize=16;container=0;fontStyle=1;movable=1;rotatable=1;deletable=1;editable=1;locked=0;connectable=1;" vertex="1" parent="1">
          <mxGeometry x="1596.25" y="280" width="90" height="30" as="geometry" />
        </mxCell>
        <mxCell id="NaLfc49Hw88pL273WHC5-23" value="Result" style="rounded=0;whiteSpace=wrap;html=1;fontSize=16;fillColor=#d5e8d4;strokeColor=#82b366;container=0;fontStyle=1;movable=1;resizable=1;rotatable=1;deletable=1;editable=1;locked=0;connectable=1;" vertex="1" parent="1">
          <mxGeometry x="1601" y="480" width="80" height="30" as="geometry" />
        </mxCell>
        <mxCell id="NaLfc49Hw88pL273WHC5-24" value="&lt;span style=&quot;font-size: 16px;&quot;&gt;&lt;font style=&quot;font-size: 16px;&quot;&gt;MemtoReg&lt;/font&gt;&lt;/span&gt;" style="rounded=0;whiteSpace=wrap;html=1;fillColor=#e51400;strokeColor=#B20000;fontColor=#ffffff;fontSize=16;fontStyle=1;movable=1;resizable=1;rotatable=1;deletable=1;editable=1;locked=0;connectable=1;" vertex="1" parent="1">
          <mxGeometry x="1603" y="350" width="80" height="30" as="geometry" />
        </mxCell>
        <mxCell id="NaLfc49Hw88pL273WHC5-25" value="Mem_OUT" style="rounded=0;whiteSpace=wrap;html=1;fontSize=16;fillColor=#d5e8d4;strokeColor=#82b366;container=0;fontStyle=1;movable=1;resizable=1;rotatable=1;deletable=1;editable=1;locked=0;connectable=1;" vertex="1" parent="1">
          <mxGeometry x="1601" y="600" width="80" height="30" as="geometry" />
        </mxCell>
        <mxCell id="NaLfc49Hw88pL273WHC5-26" value="&lt;span style=&quot;font-size: 16px;&quot;&gt;&lt;font style=&quot;font-size: 16px;&quot;&gt;....&lt;/font&gt;&lt;/span&gt;" style="rounded=0;whiteSpace=wrap;html=1;fillColor=#e51400;strokeColor=#B20000;fontColor=#ffffff;fontSize=16;fontStyle=1;movable=1;resizable=1;rotatable=1;deletable=1;editable=1;locked=0;connectable=1;" vertex="1" parent="1">
          <mxGeometry x="1603" y="380" width="80" height="30" as="geometry" />
        </mxCell>
        <mxCell id="NaLfc49Hw88pL273WHC5-27" value="MemWe" style="text;html=1;align=center;verticalAlign=middle;resizable=1;points=[];autosize=1;strokeColor=none;fillColor=none;fontColor=#ee1717;fontSize=16;fontStyle=1;movable=1;rotatable=1;deletable=1;editable=1;locked=0;connectable=1;" vertex="1" parent="1">
          <mxGeometry x="1382.5" y="447.5" width="80" height="30" as="geometry" />
        </mxCell>
        <mxCell id="NaLfc49Hw88pL273WHC5-28" style="edgeStyle=orthogonalEdgeStyle;rounded=0;orthogonalLoop=1;jettySize=auto;html=1;exitX=1;exitY=0.5;exitDx=0;exitDy=0;entryX=0;entryY=0.5;entryDx=0;entryDy=0;strokeWidth=3;strokeColor=#009900;movable=1;resizable=1;rotatable=1;deletable=1;editable=1;locked=0;connectable=1;" edge="1" parent="1" source="NaLfc49Hw88pL273WHC5-29" target="NaLfc49Hw88pL273WHC5-30">
          <mxGeometry relative="1" as="geometry" />
        </mxCell>
        <mxCell id="NaLfc49Hw88pL273WHC5-29" value="CSRs_OUT" style="rounded=0;whiteSpace=wrap;html=1;fontSize=16;fillColor=#d5e8d4;strokeColor=#82b366;container=0;fontStyle=1;movable=1;resizable=1;rotatable=1;deletable=1;editable=1;locked=0;connectable=1;" vertex="1" parent="1">
          <mxGeometry x="1112.5" y="655" width="80" height="30" as="geometry" />
        </mxCell>
        <mxCell id="NaLfc49Hw88pL273WHC5-30" value="CSRs_OUT" style="rounded=0;whiteSpace=wrap;html=1;fontSize=16;fillColor=#d5e8d4;strokeColor=#82b366;container=0;fontStyle=1;movable=1;resizable=1;rotatable=1;deletable=1;editable=1;locked=0;connectable=1;" vertex="1" parent="1">
          <mxGeometry x="1601" y="655" width="80" height="30" as="geometry" />
        </mxCell>
      </root>
    </mxGraphModel>
  </diagram>
</mxfile>
